<?xml version="1.0" encoding="UTF-8" standalone="no"?>
<!-- Created with Inkscape (http://www.inkscape.org/) -->

<svg
   xmlns:dc="http://purl.org/dc/elements/1.1/"
   xmlns:cc="http://creativecommons.org/ns#"
   xmlns:rdf="http://www.w3.org/1999/02/22-rdf-syntax-ns#"
   xmlns:svg="http://www.w3.org/2000/svg"
   xmlns="http://www.w3.org/2000/svg"
   xmlns:sodipodi="http://sodipodi.sourceforge.net/DTD/sodipodi-0.dtd"
   xmlns:inkscape="http://www.inkscape.org/namespaces/inkscape"
   id="svg3369"
   version="1.1"
   inkscape:version="0.48.5 r10040"
   width="400"
   height="349.633"
   sodipodi:docname="mobile_manner.png">
  <metadata
     id="metadata3375">
    <rdf:RDF>
      <cc:Work
         rdf:about="">
        <dc:format>image/svg+xml</dc:format>
        <dc:type
           rdf:resource="http://purl.org/dc/dcmitype/StillImage" />
        <dc:title></dc:title>
      </cc:Work>
    </rdf:RDF>
  </metadata>
  <defs
     id="defs3373" />
  <sodipodi:namedview
     pagecolor="#ffffff"
     bordercolor="#666666"
     borderopacity="1"
     objecttolerance="10"
     gridtolerance="10"
     guidetolerance="10"
     inkscape:pageopacity="0"
     inkscape:pageshadow="2"
     inkscape:window-width="2560"
     inkscape:window-height="1373"
     id="namedview3371"
     showgrid="false"
     fit-margin-top="0"
     fit-margin-left="0"
     fit-margin-right="0"
     fit-margin-bottom="0"
     inkscape:zoom="0.49166667"
     inkscape:cx="-206.77966"
     inkscape:cy="174.40163"
     inkscape:window-x="-9"
     inkscape:window-y="-9"
     inkscape:window-maximized="1"
     inkscape:current-layer="svg3369" />
  <g
     id="g3485"
     transform="matrix(0.74626868,0,0,0.74626868,-5.2238808,-3.9783706)">
    <path
       style="fill:#8f8f8f"
       d="m 172,472.52462 c -6.21542,-1.43569 -9.42981,-2.79544 -16.25,-6.87406 l -4.75,-2.8406 0,-1.78254 0,-1.78253 1.42743,-1.18466 1.42742,-1.18466 3.88824,2.57311 c 2.13853,1.41521 6.43494,3.46821 9.54759,4.56222 l 5.65935,1.9891 8.05653,0 8.05653,0 6.17827,-2.08131 c 3.39805,-1.14472 7.32136,-2.87094 8.71846,-3.83603 1.3971,-0.9651 3.0664,-2.05765 3.70956,-2.42789 l 1.16938,-0.67315 1.4916,1.4916 1.4916,1.4916 -0.48781,1.76759 -0.48781,1.76759 -3.67317,1.8541 c -2.02024,1.01976 -5.69817,2.87461 -8.17317,4.1219 l -4.5,2.26779 -5.29922,1.1281 c -6.46635,1.37657 -10.05124,1.30419 -17.20078,-0.34727 z m 2.5,-20.93031 c -1.65,-0.68944 -4.46362,-1.87929 -6.25249,-2.6441 l -3.2525,-1.39057 -0.60028,-1.89133 -0.60029,-1.89132 1.47434,-1.47435 1.47434,-1.47434 4.37844,2.28137 4.37844,2.28137 5.5,0.0355 5.5,0.0355 4.43714,-2.19818 4.43714,-2.19817 1.31286,1.08957 1.31286,1.08958 0,1.79426 0,1.79426 -6.32903,3.0833 -6.32902,3.08329 -3.92098,-0.0761 -3.92097,-0.0761 -3,-1.25353 z m -154,-26.46524 -4,-1.82701 -3.275329,-3.36678 L 9.9493423,416.56851 8.4746711,411.60275 7,406.637 7,239.5 7,72.363002 8.5012649,67.307695 10.00253,62.252388 l 4.352463,-4.01196 4.352463,-4.01196 5.195493,-1.114234 L 29.098442,52 188.7943,52 348.49017,52 209.74508,190.75849 71,329.51698 l 0,4.94314 0,4.94314 43.724,43.79837 L 158.44799,427 91.473997,426.97804 24.5,426.95608 l -4,-1.82701 z m 24.11484,-63.56774 0.501867,-1.30785 -3.098579,-4.87674 -3.098578,-4.87674 -1.597706,-5.48038 -1.597707,-5.48038 0.04189,-6.51962 0.04189,-6.51962 2.1324,-6.32638 2.1324,-6.32638 2.632105,-3.97738 2.632105,-3.97738 -2.133781,-2.13378 -2.133781,-2.13378 -2.534681,1.35652 L 36,304.33796 l 0,1.09889 c 0,0.60438 -1.099566,2.71704 -2.443481,4.69479 l -2.443481,3.5959 -2.056519,6.10469 L 27,325.93691 27,333.5 l 0,7.56309 2.008631,5.96253 2.008631,5.96253 3.46267,5.41303 3.462671,5.41302 1.278699,0.45777 1.278698,0.45777 1.806487,-0.93028 c 0.993567,-0.51166 2.032326,-1.51882 2.308353,-2.23813 z m 15.449488,-12.13884 1.309217,-1.57751 -2.436773,-4.46566 L 56.5,338.91366 56.53715,333.20683 56.5743,327.5 l 2.372076,-4.20568 2.372076,-4.20567 -1.323634,-1.59488 -1.323634,-1.59489 -2.483477,0.30056 -2.483477,0.30056 -2.81454,5.5 -2.81454,5.5 -0.363936,3.5 -0.363936,3.5 0.860738,3.8806 0.860737,3.88059 2.560642,4.36941 2.560641,4.3694 2.282533,0 2.282534,0 1.309217,-1.57751 z M 340.39216,288.10425 479.27449,149.2085 l -0.49818,-5.18473 -0.49819,-5.18472 -5.85307,-5.91479 -5.85308,-5.91479 15.62071,-15.75474 15.6207,-15.75473 1.12176,-4.212534 1.12177,-4.212533 -0.61839,-2.463871 -0.61839,-2.46387 -1.66007,-1.432567 c -0.91303,-0.787912 -2.70919,-1.688481 -3.99147,-2.001265 l -2.3314,-0.568698 -4.61937,1.390223 -4.61936,1.390224 L 466.29423,96.20545 450.98999,111.48579 421.2471,81.742896 391.5042,52 l 64.69868,0 64.69868,0 5.29922,1.113754 5.29922,1.113754 4.64251,4.771407 4.6425,4.771407 1.1075,5.16406 1.10749,5.16406 0,166.269278 0,166.26928 -1.46968,4.94894 -1.46968,4.94895 -3.78032,3.68373 -3.78032,3.68373 -3.71788,1.54882 -3.71788,1.54883 -161.7772,0 -161.77721,0 138.88233,-138.89575 z M 433.32563,401.25 c 0.24402,-0.4125 0.75071,-2.60678 1.126,-4.87619 l 0.68233,-4.12618 -25.81698,0.25459 -25.81698,0.2546 -4.75,2.32086 c -2.6125,1.27647 -4.75,2.64628 -4.75,3.04403 0,0.77053 4.86229,2.49198 9,3.18637 1.375,0.23076 13.16094,0.48084 26.19098,0.55574 L 432.88197,402 l 0.44366,-0.75 z M 486,399 l 0,-2 2.6971,0 2.69711,0 -8.2715,-4 c -4.54931,-2.2 -8.68801,-4 -9.1971,-4 L 473,389 l 0,6 0,6 6.5,0 6.5,0 0,-2 z m 31,-16 0,-18 -8,0 -8,0 0,-4 0,-4 9,0 9,0 0,-5 0,-5 -9,0 -9,0 0,-4.5 c 0,-2.475 -0.21503,-4.5 -0.47785,-4.5 -0.26281,0 -2.96281,1.21874 -6,2.70832 L 489,343.41664 l 0,1.79168 0,1.79168 -4.03324,0 -4.03325,0 -4.96675,2.51685 -4.96676,2.51684 0,2.48316 0,2.48315 9,0 9,0 0,4 0,4 -8,0 -8,0 0,7.4856 0,7.48561 5.97148,3.01439 c 3.28432,1.65792 6.20932,3.0144 6.5,3.0144 0.29069,0 0.52852,-2.7 0.52852,-6 l 0,-6 9.5,0 9.5,0 0,7 0,7 -7.25,0.0836 -7.25,0.0837 13,6.34118 c 7.15,3.48765 13.1125,6.37501 13.25,6.41635 C 516.8875,400.96618 517,392.9 517,383 z m -66,15.5 0,-1.5 9,0 9,0 0,-5.30073 0,-5.30074 -4.52675,-2.19926 C 461.98354,382.98967 459.50854,382 458.97325,382 L 458,382 l 0,4 0,4 -3,0 -3,0 0,-5 0,-5 1.25,-0.0442 1.25,-0.0442 -4,-2.10968 c -2.2,-1.16033 -5.4625,-2.72148 -7.25,-3.46923 l -3.25,-1.35954 0,13.51342 0,13.51342 5.5,0 5.5,0 0,-1.5 z m -82.23154,-6.64237 5.26846,-2.35763 -0.50481,-2 c -0.27764,-1.1 -0.51095,-8.6375 -0.51846,-16.75 L 373,356 l -10,0 -10,0 0,4.5 0,4.5 4,0 4,0 0,10.98746 0,10.98745 -3.98013,2.51255 c -2.18907,1.38189 -4.43907,2.51254 -5,2.51254 -1.27705,0 -1.28889,1.16224 -0.0452,4.43348 l 0.97471,2.56367 5.27529,-2.39094 c 2.90141,-1.31502 7.6461,-3.45188 10.54375,-4.74858 z M 409,385.51261 l 0,-4.48739 -5.62443,2.48739 c -3.09344,1.36806 -5.79344,2.48739 -6,2.48739 C 397.16901,386 397,386.9 397,388 l 0,2 6,0 6,0 0,-4.48739 z m 18.1143,2.59592 2.33587,-1.89148 0.38398,-7.60387 0.38398,-7.60386 -6.04439,2.74534 -6.04439,2.74534 -0.31467,2 -0.31468,2 -3.75066,0 -3.75065,0 6.5e-4,3.16821 c 3.6e-4,1.74252 0.2738,3.88002 0.60765,4.75 l 0.60699,1.58179 6.78222,0 6.78223,0 2.33587,-1.89147 z M 389,378.9856 389,376 l 3.8,0 3.8,0 0.95,0.91829 0.95,0.91828 12.30193,-5.80355 c 6.76606,-3.19195 12.50351,-6.00513 12.74989,-6.2515 0.24637,-0.24638 -5.42264,-3.20602 -12.5978,-6.577 l -13.04575,-6.12904 -0.56113,1.46226 -0.56112,1.46226 -3.89301,0 -3.89301,0 0,-2.5 0,-2.5 1.75,-0.0485 1.75,-0.0485 -6.5,-3.403 c -3.575,-1.87163 -7.0625,-3.42479 -7.75,-3.45148 L 377,344 l 0,22.0144 0,22.01439 6,-3.02879 6,-3.02879 0,-2.98561 z m 0,-13.4856 0,-2.5 4,0 4,0 0,2.5 0,2.5 -4,0 -4,0 0,-2.5 z m 20,0 0,-2.5 4.5,0 4.5,0 0,2.5 0,2.5 -4.5,0 -4.5,0 0,-2.5 z m 60,9.5 0,-3 -6.75,0.003 -6.75,0.003 6,2.92021 c 3.3,1.60611 6.3375,2.95471 6.75,2.99688 L 469,378 l 0,-3 z m -1,-10.56641 0,-3.43359 -8.47325,0 -8.47325,0 -4.55173,2.2114 -4.55173,2.2114 2.96512,1.5386 2.96512,1.5386 10.05986,-0.31641 10.05986,-0.31642 0,-3.43358 z m -38,-12.89315 0,-8.45956 -8.25,-0.29044 -8.25,-0.29044 3.08427,-1.68998 c 1.69634,-0.92948 5.41246,-3.53031 8.25804,-5.77961 l 5.17378,-4.08963 -2.1961,-2.97039 L 425.62388,325 401.31194,325 377,325 l 0,4 0,4 4.67431,0 4.67432,0 -2.1688,2.30858 -2.16881,2.30859 14.24449,6.70258 14.24449,6.70258 3.75,-0.0112 L 418,351 l 0,1.87285 0,1.87285 5.75,2.56134 c 3.1625,1.40873 5.8625,2.59094 6,2.62714 0.1375,0.0362 0.25,-3.74098 0.25,-8.39374 z M 398,336 l -4.5,-2.99144 8.75,-0.004 c 4.8125,-0.002 8.75,0.2045 8.75,0.45967 0,0.53954 -7.21278,5.53813 -7.98213,5.53177 C 402.73304,338.99336 400.475,337.64529 398,336 z m 60.91667,13.3778 C 459.14583,349.17001 455.43333,349 450.66667,349 L 442,349 l 0,3.33333 c 0,1.83334 0.25627,3.58961 0.56949,3.90283 l 0.56949,0.56949 7.68051,-3.52503 c 4.22428,-1.93877 7.86801,-3.69504 8.09718,-3.90282 z m 9.08333,5.08702 0,-1.53519 -2.25,1.17064 C 462.44072,355.82203 462.40169,356 465.33333,356 l 2.66667,0 0,-1.53518 z m -98.16294,-6.58585 5.10376,-2.12103 -1.10586,-2.12897 c -0.60823,-1.17093 -1.17866,-2.22521 -1.26762,-2.34284 -0.089,-0.11763 -4.47133,-2.21409 -9.73858,-4.65879 l -9.57683,-4.44491 5.12404,8.86853 c 2.81821,4.87769 5.40152,8.88664 5.74068,8.90878 0.33915,0.0221 2.91334,-0.9142 5.72041,-2.08077 z M 470.81037,340.75 471.12073,337 455.06037,337 439,337 l 0,4.02539 0,4.0254 15.75,-0.2754 15.75,-0.27539 0.31037,-3.75 z M 499,330.58004 l 9.5,-4.63003 -2.5,0.54285 c -6.75807,1.46745 -22.05768,3.49772 -26.5,3.51656 l -5,0.0212 -1.28387,0.81463 -1.28387,0.81464 0.45035,1.42005 c 0.24769,0.78103 0.71324,2.62461 1.03455,4.09686 l 0.5842,2.6768 1.74932,0.37503 1.74932,0.37503 6,-2.6968 c 3.3,-1.48324 10.275,-4.78032 15.5,-7.32683 z m 14.42399,5.00071 3.92399,-1.12469 0.40917,-1.2275 0.40917,-1.22751 -1.47819,-0.56723 -1.47819,-0.56724 -6.85497,3.5671 -6.85497,3.56709 4,-0.64767 c 2.2,-0.35622 5.7658,-1.15378 7.92399,-1.77235 z M 469,330 l 0,-4 -13.5,0 -13.5,0 0,4 0,4 13.5,0 13.5,0 0,-4 z m -105,-2 0,-1 -1.75,0.0153 -1.75,0.0153 L 362,328 c 1.88721,1.21961 2,1.21961 2,0 z M 511.53282,176.23469 c 0.56804,-0.40408 2.44554,-2.98469 4.1722,-5.73469 l 3.13939,-5 2.07779,-6.21845 2.0778,-6.21846 0,-7.35004 0,-7.35005 -1.47926,-4.9315 -1.47926,-4.9315 -3.79063,-6.5 -3.79064,-6.5 -2.66285,-0.30993 -2.66284,-0.30993 -1.07626,2.01101 -1.07626,2.01101 3.04922,4.79892 3.04923,4.79892 1.52958,5.24603 1.52958,5.24603 -0.0218,6.89297 -0.0218,6.89297 -2.10454,6.24723 -2.10454,6.24723 -2.44348,3.5959 c -2.88244,4.2419 -2.91857,4.51369 -0.87205,6.56021 1.70027,1.70027 3.33175,1.96535 4.96139,0.80612 z m -11.80779,-19.94524 2.53579,-5.53892 -0.049,-5.44995 -0.049,-5.44995 -2.71718,-5.37041 -2.71719,-5.37042 -1.50513,-0.57758 -1.50513,-0.57757 -1.76675,0.56074 -1.76674,0.56074 -0.61229,1.59561 -0.61229,1.5956 2.2119,3.61633 2.21189,3.61633 0.0384,6 0.0384,6 -2.46922,4.34737 -2.46921,4.34737 2.33172,1.88812 2.33173,1.88811 2.00175,-1.0713 2.00176,-1.07131 2.5358,-5.53891 z m -291.7335,220.60962 -5.18806,-4.10092 -3.37976,3.2758 -3.37977,3.27579 -2.04937,-1.85465 -2.04936,-1.85465 3.72234,-3.81202 3.72234,-3.81203 -2.88204,-3.00819 c -3.53092,-3.6855 -4.16507,-3.71079 -7.71702,-0.3078 l -2.81861,2.70039 -1.70933,-1.70933 -1.70934,-1.70934 10.42649,-10.46209 10.42649,-10.4621 1.82989,1.65602 1.82988,1.65603 -5.23906,5.30495 -5.23906,5.30496 3.41527,3.52367 3.41527,3.52366 6.23646,-6.18102 6.23646,-6.18102 1.55418,1.28985 c 2.42913,2.016 1.94781,3.0892 -4.14846,9.24974 l -5.70264,5.76277 2.88973,3.01623 2.88973,3.01623 1.52856,0 1.52856,0 4.7853,-4.71334 4.78529,-4.71334 1.74906,1.75748 1.74905,1.75749 -6.6404,6.45585 -6.6404,6.45586 -1.5198,0 -1.5198,0 -5.18807,-4.10093 z M 161,356.36469 l -6.5,-1.38416 -16.25,-0.63822 -16.25,-0.63821 0,-4.85205 0,-4.85205 4.5,-0.125 c 2.475,-0.0688 6.8625,-0.19046 9.75,-0.27046 l 5.25,-0.14546 -0.27365,-6.47954 c -0.26116,-6.18398 -2.8649,-21.52445 -3.96157,-23.34045 l -0.5199,-0.8609 -15.86868,15.84543 -15.86869,15.84543 -3.24256,-3.24256 -3.242555,-3.24256 19.488805,-19.47808 19.4888,-19.47809 2.97684,0.80187 2.97684,0.80187 2.25423,6.75531 c 2.45886,7.36852 4.81592,19.42951 5.78114,29.58188 0.33825,3.55778 0.70409,6.51997 0.81297,6.58264 0.10889,0.0627 4.42521,0.85398 9.59182,1.75848 5.16661,0.90449 9.53221,1.7829 9.70132,1.95202 0.16912,0.16912 -0.25479,2.51162 -0.94202,5.20556 l -1.24951,4.89807 -0.95181,0.19169 c -0.5235,0.10543 -3.87682,-0.43118 -7.45182,-1.19246 z m 60.68501,-7.16026 -1.62497,-1.79557 11.92825,-11.89718 11.92826,-11.89718 2.08366,1.88569 2.08366,1.88568 -11.7763,11.80707 C 229.8306,345.68682 224.25647,351 223.92062,351 c -0.33585,0 -1.34188,-0.80801 -2.23561,-1.79557 z M 192,329.21842 c -1.925,-0.90951 -3.67731,-1.77054 -3.89401,-1.91339 -0.21671,-0.14285 0.39992,-2.78387 1.37029,-5.86893 l 1.76431,-5.60921 -0.47381,-4.20361 -0.4738,-4.20362 -1.78946,-3.77099 -1.78945,-3.771 -4.28887,-4.68883 -4.28887,-4.68884 -9.33718,9.25022 -9.33717,9.25022 -3.23121,-3.23121 -3.23121,-3.23121 9.22693,-9.26545 9.22693,-9.26546 -6.74125,-6.7933 -6.74124,-6.7933 3.52726,-3.41875 3.52726,-3.41876 6.26418,6.2085 c 3.4453,3.41467 6.69149,6.2085 7.21376,6.2085 0.52227,0 4.22397,-3.25254 8.226,-7.22786 l 7.27643,-7.22786 3.22574,3.22574 3.22574,3.22574 -7.66181,7.75212 -7.6618,7.75212 4.8489,5.22812 4.84891,5.22813 2.83425,5.77187 2.83425,5.77188 -0.007,8 -0.007,8 -1.87909,4.75 c -1.0335,2.6125 -2.15545,4.72122 -2.49323,4.68605 -0.33778,-0.0352 -2.18914,-0.80811 -4.11414,-1.71763 z m 63.48249,-14.23596 -14.94222,-14.96717 2.22279,-2.2228 2.22279,-2.22279 4.44352,4.36099 4.44352,4.36098 7.31356,-2.24427 c 4.02245,-1.23435 8.50167,-2.60936 9.95382,-3.05557 l 2.64027,-0.81129 1.10973,1.10973 C 275.50062,299.90062 276,301.13336 276,302.0297 l 0,1.6297 -8.25,1.7698 c -4.5375,0.97339 -8.63498,2.00593 -9.1055,2.29452 l -0.85551,0.52472 8.63426,8.67445 8.63426,8.67445 -2.3164,2.17615 -2.3164,2.17614 -14.94222,-14.96717 z m 0.26751,-17.21574 -2.75,-0.93339 0,-1.48405 0,-1.48406 2.25,0.68836 c 1.2375,0.37859 2.79209,0.97788 3.45464,1.33175 l 1.20465,0.64341 -0.70465,1.08569 -0.70464,1.08568 -2.75,-0.93339 z m 3.3649,-6.15964 -2.3851,-1.32205 1.08911,-0.67311 1.08911,-0.67311 2.54599,0.639 2.54599,0.63901 0,1.39159 0,1.39159 -1.25,-0.0354 c -0.6875,-0.0195 -2.32329,-0.63035 -3.6351,-1.35748 z m -46.64417,-25.63763 -2.90345,-3.03055 20.20829,-20.20829 20.20829,-20.20829 3.24377,3.24377 3.24377,3.24377 -19.97632,19.99507 C 225.5081,260.00222 216.26122,269 215.94647,269 c -0.31476,0 -1.87884,-1.36375 -3.47574,-3.03055 z m 109.56874,0.0761 c -0.80329,-0.50811 -17.78961,-17.26371 -37.74738,-37.23469 L 248.00524,192.5 248.00262,188.00181 248,183.50362 299.7793,131.75181 351.5586,80 l 4.94164,0 4.94165,0 36.77905,36.77799 36.77906,36.77799 0,3.27167 0,3.27167 -1.43142,2.70034 -1.43143,2.70034 -50.84147,50.75 -50.84148,50.75 -3.4771,-0.0153 -3.4771,-0.0153 -1.46053,-0.92381 z m 30.27,-229.681483 -0.62776,-1.635923 0.94795,-1.502824 c 0.52138,-0.826554 3.17724,-2.670388 5.90192,-4.097411 l 4.95397,-2.594586 5.50722,0.03979 5.50723,0.03979 5.29699,2.734196 5.29698,2.734197 0.58976,1.536886 0.58976,1.536886 -1.55247,1.552464 -1.55246,1.552464 -4.4,-2.130005 L 374.36855,34 l -5.47283,0 -5.47284,0 -3.92288,2 c -2.15759,1.1 -4.51686,2 -5.24283,2 l -1.31994,0 -0.62776,-1.635923 z m -13.20451,-16.167959 -0.96541,-1.803882 0.76077,-1.230946 c 0.86732,-1.403351 5.30769,-4.093881 12.66477,-7.6738865 L 356.63018,7.0226951 362.81509,6.1768558 369,5.3310165 l 6.03864,0.8258358 6.03864,0.8258359 5.71136,2.8970739 c 3.14125,1.5933909 7.17386,3.6552449 8.96136,4.5818979 l 3.25,1.684824 0,1.34497 C 399,19.611561 397.87328,22 396.87314,22 c -0.50209,0 -2.66852,-1.108286 -4.8143,-2.462858 -2.14578,-1.354572 -6.62265,-3.379572 -9.94859,-4.5 L 376.06309,13 l -7.28154,0.02109 -7.28155,0.02109 -6.67138,2.354831 -6.67138,2.35483 -2.98299,2.124077 c -3.64329,2.594251 -4.81906,2.656281 -6.06929,0.320196 z"
       id="path3419"
       inkscape:connector-curvature="0" />
    <path
       style="fill:#fd0303"
       d="m 347.52389,405.75 -1.37956,-3.25 0.67783,-0.57583 c 0.37281,-0.31671 3.60284,-1.85408 7.17784,-3.41638 3.575,-1.5623 13.025,-5.96598 21,-9.78596 7.975,-3.81998 19.675,-9.31413 26,-12.20922 6.325,-2.8951 14.2,-6.53125 17.5,-8.08033 l 6,-2.81652 -10.5,-4.92789 c -44.67155,-20.9654 -59.11958,-27.70535 -63.22923,-29.4962 l -4.72923,-2.06084 1.42932,-3.31541 1.42932,-3.31542 1.29991,0.31882 c 0.71495,0.17534 17.04991,7.76598 36.29991,16.86807 19.25,9.10209 37.59591,17.68359 40.7687,19.07 l 5.76869,2.52075 11.73131,-5.30502 c 6.45221,-2.91776 16.2313,-7.44181 21.7313,-10.05343 5.5,-2.61162 19.11979,-9.02538 30.26621,-14.25279 l 20.26621,-9.50439 1.56889,3.0339 1.56889,3.03389 -0.8351,0.72767 c -0.75887,0.66125 -17.71922,8.67321 -61.6697,29.13238 l -15.83459,7.37108 7.83459,3.70721 c 33.59894,15.89849 66.23137,31.18737 68.18626,31.94648 l 2.35165,0.91318 -0.71511,1.7361 c -0.39331,0.95485 -0.94154,2.5236 -1.21828,3.4861 -0.66997,2.33006 -0.80436,2.30327 -9.35463,-1.8647 -9.59733,-4.67837 -20.86538,-10.00911 -50.78627,-24.02618 l -24.37099,-11.4171 -2.02029,0.64122 c -1.11116,0.35267 -6.56922,2.78734 -12.12902,5.41039 -5.5598,2.62305 -16.85872,7.93278 -25.10872,11.79941 -8.25,3.86663 -21.6803,10.22 -29.8451,14.1186 -8.16481,3.8986 -15.04903,7.08836 -15.29828,7.08836 -0.24924,0 -1.07397,-1.4625 -1.83273,-3.25 z m -139.53236,-28.85093 -5.18806,-4.10092 -3.37976,3.2758 -3.37977,3.27579 -2.04937,-1.85465 -2.04936,-1.85465 3.72234,-3.81202 3.72234,-3.81203 -2.88204,-3.00819 c -3.53092,-3.6855 -4.16507,-3.71079 -7.71702,-0.3078 l -2.81861,2.70039 -1.70933,-1.70933 -1.70934,-1.70934 10.42649,-10.46209 10.42649,-10.4621 1.82989,1.65602 1.82988,1.65603 -5.23906,5.30495 -5.23906,5.30496 3.41527,3.52367 3.41527,3.52366 6.23646,-6.18102 6.23646,-6.18102 1.55418,1.28985 c 2.42913,2.016 1.94781,3.0892 -4.14846,9.24974 l -5.70264,5.76277 2.88973,3.01623 2.88973,3.01623 1.52856,0 1.52856,0 4.7853,-4.71334 4.78529,-4.71334 1.74906,1.75748 1.74905,1.75749 -6.6404,6.45585 -6.6404,6.45586 -1.5198,0 -1.5198,0 -5.18807,-4.10093 z M 161,356.36469 l -6.5,-1.38416 -16.25,-0.63822 -16.25,-0.63821 0,-4.85205 0,-4.85205 4.5,-0.125 c 2.475,-0.0688 6.8625,-0.19046 9.75,-0.27046 l 5.25,-0.14546 -0.27365,-6.47954 c -0.26116,-6.18398 -2.8649,-21.52445 -3.96157,-23.34045 l -0.5199,-0.8609 -15.86868,15.84543 -15.86869,15.84543 -3.24256,-3.24256 -3.242555,-3.24256 19.488805,-19.47808 19.4888,-19.47809 2.97684,0.80187 2.97684,0.80187 2.25423,6.75531 c 2.45886,7.36852 4.81592,19.42951 5.78114,29.58188 0.33825,3.55778 0.70409,6.51997 0.81297,6.58264 0.10889,0.0627 4.42521,0.85398 9.59182,1.75848 5.16661,0.90449 9.53221,1.7829 9.70132,1.95202 0.16912,0.16912 -0.25479,2.51162 -0.94202,5.20556 l -1.24951,4.89807 -0.95181,0.19169 c -0.5235,0.10543 -3.87682,-0.43118 -7.45182,-1.19246 z m 60.68501,-7.16026 -1.62497,-1.79557 11.92825,-11.89718 11.92826,-11.89718 2.08366,1.88569 2.08366,1.88568 -11.7763,11.80707 C 229.8306,345.68682 224.25647,351 223.92062,351 c -0.33585,0 -1.34188,-0.80801 -2.23561,-1.79557 z M 192,329.21842 c -1.925,-0.90951 -3.67731,-1.77054 -3.89401,-1.91339 -0.21671,-0.14285 0.39992,-2.78387 1.37029,-5.86893 l 1.76431,-5.60921 -0.47381,-4.20361 -0.4738,-4.20362 -1.78946,-3.77099 -1.78945,-3.771 -4.28887,-4.68883 -4.28887,-4.68884 -9.33718,9.25022 -9.33717,9.25022 -3.23121,-3.23121 -3.23121,-3.23121 9.22693,-9.26545 9.22693,-9.26546 -6.74125,-6.7933 -6.74124,-6.7933 3.52726,-3.41875 3.52726,-3.41876 6.26418,6.2085 c 3.4453,3.41467 6.69149,6.2085 7.21376,6.2085 0.52227,0 4.22397,-3.25254 8.226,-7.22786 l 7.27643,-7.22786 3.22574,3.22574 3.22574,3.22574 -7.66181,7.75212 -7.6618,7.75212 4.8489,5.22812 4.84891,5.22813 2.83425,5.77187 2.83425,5.77188 -0.007,8 -0.007,8 -1.87909,4.75 c -1.0335,2.6125 -2.15545,4.72122 -2.49323,4.68605 -0.33778,-0.0352 -2.18914,-0.80811 -4.11414,-1.71763 z m 63.48249,-14.23596 -14.94222,-14.96717 2.22279,-2.2228 2.22279,-2.22279 4.44352,4.36099 4.44352,4.36098 7.31356,-2.24427 c 4.02245,-1.23435 8.50167,-2.60936 9.95382,-3.05557 l 2.64027,-0.81129 1.10973,1.10973 C 275.50062,299.90062 276,301.13336 276,302.0297 l 0,1.6297 -8.25,1.7698 c -4.5375,0.97339 -8.63498,2.00593 -9.1055,2.29452 l -0.85551,0.52472 8.63426,8.67445 8.63426,8.67445 -2.3164,2.17615 -2.3164,2.17614 -14.94222,-14.96717 z m 0.26751,-17.21574 -2.75,-0.93339 0,-1.48405 0,-1.48406 2.25,0.68836 c 1.2375,0.37859 2.79209,0.97788 3.45464,1.33175 l 1.20465,0.64341 -0.70465,1.08569 -0.70464,1.08568 -2.75,-0.93339 z m 3.3649,-6.15964 -2.3851,-1.32205 1.08911,-0.67311 1.08911,-0.67311 2.54599,0.639 2.54599,0.63901 0,1.39159 0,1.39159 -1.25,-0.0354 c -0.6875,-0.0195 -2.32329,-0.63035 -3.6351,-1.35748 z m -46.64417,-25.63763 -2.90345,-3.03055 20.20829,-20.20829 20.20829,-20.20829 3.24377,3.24377 3.24377,3.24377 -19.97632,19.99507 C 225.5081,260.00222 216.26122,269 215.94647,269 c -0.31476,0 -1.87884,-1.36375 -3.47574,-3.03055 z"
       id="path3415"
       inkscape:connector-curvature="0" />
  </g>
</svg>
