<?xml version="1.0" encoding="UTF-8" standalone="no"?>
<!-- Created with Inkscape (http://www.inkscape.org/) -->

<svg
   xmlns:dc="http://purl.org/dc/elements/1.1/"
   xmlns:cc="http://creativecommons.org/ns#"
   xmlns:rdf="http://www.w3.org/1999/02/22-rdf-syntax-ns#"
   xmlns:svg="http://www.w3.org/2000/svg"
   xmlns="http://www.w3.org/2000/svg"
   xmlns:sodipodi="http://sodipodi.sourceforge.net/DTD/sodipodi-0.dtd"
   xmlns:inkscape="http://www.inkscape.org/namespaces/inkscape"
   id="svg3167"
   version="1.1"
   inkscape:version="0.48.5 r10040"
   width="800"
   height="307.3288"
   sodipodi:docname="priority_old.svg">
  <metadata
     id="metadata3173">
    <rdf:RDF>
      <cc:Work
         rdf:about="">
        <dc:format>image/svg+xml</dc:format>
        <dc:type
           rdf:resource="http://purl.org/dc/dcmitype/StillImage" />
        <dc:title></dc:title>
      </cc:Work>
    </rdf:RDF>
  </metadata>
  <defs
     id="defs3171" />
  <sodipodi:namedview
     pagecolor="#ffffff"
     bordercolor="#666666"
     borderopacity="1"
     objecttolerance="10"
     gridtolerance="10"
     guidetolerance="10"
     inkscape:pageopacity="0"
     inkscape:pageshadow="2"
     inkscape:window-width="2560"
     inkscape:window-height="1373"
     id="namedview3169"
     showgrid="false"
     inkscape:zoom="0.45210728"
     inkscape:cx="-316.37858"
     inkscape:cy="46.629189"
     inkscape:window-x="-9"
     inkscape:window-y="-9"
     inkscape:window-maximized="1"
     inkscape:current-layer="svg3167"
     fit-margin-top="0"
     fit-margin-left="0"
     fit-margin-right="0"
     fit-margin-bottom="0" />
  <g
     id="g3470"
     transform="matrix(0.59746079,0,0,0.59746079,-2.6885736,-2.1556431)">
    <path
       style="fill:#1faf1f"
       d="m 507,516.96369 c -4.125,-0.50415 -12.45,-1.8895 -18.5,-3.07855 l -11,-2.16191 -11,-3.46881 -11,-3.46882 -11.5,-5.21729 -11.5,-5.21729 -9.04693,-5.51647 c -10.78708,-6.57754 -21.19353,-14.43181 -31.5535,-23.81502 l -7.60043,-6.88384 -4.89957,4.02013 c -2.69476,2.21107 -6.02457,5.00118 -7.39957,6.20023 -1.375,1.19906 -4.075,3.27529 -6,4.61385 -1.925,1.33856 -3.725,2.70371 -4,3.03368 -0.69322,0.83179 -9.7608,6.86293 -14,9.31185 -19.10628,11.03744 -30.12163,16.05526 -47.28661,21.54046 l -12.78662,4.08607 -10.21531,1.97135 c -5.61842,1.08424 -15.36804,2.51087 -21.6658,3.17029 l -11.45049,1.19893 -16.04759,-0.58901 L 212.5,516.10451 203,514.51983 C 176.54256,510.1065 145.32692,498.7023 125.60933,486.24624 114.81448,479.42687 107.80107,474.52852 100,468.35999 L 91.5,461.63881 80.467238,450.5694 C 67.470325,437.52933 58.616288,426.68716 48.366874,411.26107 l -7.467377,-11.23893 -6.37801,-12.26107 C 20.627569,361.05144 11.122473,331.12717 6.247757,298.74875 L 4.5542082,287.5 4.5271041,261 4.5,234.5 l 1.2982305,-9 C 9.4056829,200.49129 15.265771,178.28698 24.131287,156.03468 L 29.125215,143.5 34.695048,133 C 45.168943,113.25508 55.86625,97.856858 71.646742,79.809938 l 8.473133,-9.690063 10.033798,-8.809937 C 102.76067,50.240659 115.76568,40.865327 129.44106,32.987599 l 10.64497,-6.132057 11.52309,-4.944398 11.5231,-4.944397 11.26608,-3.414902 c 6.19634,-1.878196 16.17909,-4.3657565 22.18389,-5.5279126 L 207.5,5.9109215 l 14,-1.1208519 14,-1.1208519 15,1.1806617 15,1.1806616 12.5,2.5234653 12.5,2.5234657 13.5,4.53911 13.5,4.539111 13,6.368303 13,6.368304 10,6.689822 c 11.22544,7.509619 21.19118,15.064869 26.68103,20.227468 l 3.68102,3.461606 8.59904,-7.650683 C 423.47151,28.030113 458.38663,11.712734 500,5.3628268 l 11.5,-1.7548192 18,0 18,0 11.40383,1.7530836 c 35.53535,5.4627678 67.58617,18.9004328 94.08976,39.4481858 4.67852,3.627178 8.74518,6.841437 9.03702,7.142796 0.29183,0.30136 3.08959,2.992992 6.21723,5.981404 l 5.68662,5.433477 5.78277,-5.474313 c 18.21753,-17.245796 40.74196,-31.446784 64.79381,-40.850592 l 10.03612,-3.923927 12.07529,-3.062801 c 6.64142,-1.6845399 16.75581,-3.8088124 22.47642,-4.7206054 L 799.5,3.6769103 l 19,-0.032255 19,-0.032256 11,1.7677331 C 890.78217,12.175004 924.38578,27.96157 955.72574,55.753472 l 8.22574,7.294489 7.77426,-6.595464 7.77426,-6.595464 13.5,-9.033924 13.5,-9.033923 12.0364,-5.827086 12.0364,-5.827086 13.5486,-4.526545 13.5486,-4.526545 12.415,-2.5199691 12.415,-2.5199696 14.6846,-1.1869316 14.6845,-1.1869315 14.8155,1.1657367 14.8154,1.1657367 12.2811,2.5139917 c 30.0719,6.1558397 57.5858,18.1098417 83.1437,36.1234767 l 10.5752,7.453553 10.0722,8.880312 10.0722,8.880311 8.591,9.82438 c 36.8578,42.14934 57.949,88.64101 65.9274,145.32438 l 1.3372,9.5 -0.027,26.5 -0.027,26.5 -1.6936,11.24875 c -10.9333,72.62041 -45.6331,133.24296 -99.8916,174.51636 -4.2689,3.24727 -10.3115,7.25687 -20.393,13.53183 -19.9088,12.39172 -50.0345,23.31361 -76.4676,27.72289 l -9.5,1.58468 -16.0476,0.58901 -16.0476,0.58901 -11.4505,-1.19893 c -6.2977,-0.65942 -16.1763,-2.11089 -21.9524,-3.2255 l -10.5019,-2.02657 -13.5,-4.4399 -13.5,-4.43991 -12.471,-6.02593 c -18.431,-8.90572 -31.02692,-17.08211 -49.23725,-31.96135 l -7.25782,-5.93019 -4.51697,4.32791 c -4.32243,4.14153 -15.8269,13.79996 -21.7251,18.23903 -6.48802,4.88298 -20.51331,13.07404 -30.29186,17.69107 l -10.5,4.95768 -13.04428,4.30547 -13.04429,4.30547 -10.95571,2.06285 C 853.43007,515.05829 844.45,516.4359 839.5,516.98508 l -9,0.99851 -11.28941,0.008 -11.28942,0.008 -9.71058,-1.04627 C 752.05769,511.98098 711.49441,493.62859 679.16615,463.09347 676.78253,460.84206 674.47133,459 674.03015,459 c -0.44119,0 -3.44095,2.49413 -6.66615,5.54252 -6.92549,6.54581 -21.21068,17.42141 -30.41671,23.15684 C 615.29384,501.18965 588.67341,511.07492 562,515.5304 l -9.5,1.58687 -19,0.38153 -19,0.38153 -7.5,-0.91664 z m 39.5,-5.99398 c 46.41735,-4.34053 87.0622,-22.60103 119.68928,-53.77276 l 7.78034,-7.4333 8.26519,7.78456 c 14.94582,14.07669 29.00058,24.00805 46.26519,32.69187 24.28377,12.21433 47.12187,18.51496 75.85563,20.92723 l 13.85562,1.16321 14.35051,-1.16659 14.35051,-1.16659 10.79386,-2.08291 10.79387,-2.0829 13.01627,-4.28311 13.01626,-4.2831 10.76181,-5.07633 10.76181,-5.07633 10.22192,-6.69698 c 12.08228,-7.9158 21.81325,-15.78285 30.63382,-24.76606 l 6.41189,-6.53012 6.58811,6.04825 c 21.17261,19.43761 48.53251,35.36566 77.22881,44.96015 l 11.8706,3.96889 11.4705,2.37862 11.4705,2.37862 13.7739,1.20337 13.7738,1.20338 11.5,-0.66794 c 28.1031,-1.63225 52.6425,-7.62349 77.8629,-19.01001 l 10.3628,-4.67863 10.1372,-6.09843 c 5.5754,-3.35414 14.4121,-9.29431 19.6371,-13.20038 l 9.5,-7.10194 11.3911,-11.00173 c 24.4279,-23.59287 41.4662,-48.06456 55.3775,-79.53718 l 5.5095,-12.46454 4.0385,-12.65098 c 4.9826,-15.60806 8.5773,-31.47312 10.8416,-47.84902 l 1.7283,-12.5 0.057,-23 0.057,-23 -1.3252,-10.5 c -4.2246,-33.473 -13.2789,-62.96731 -28.1449,-91.68154 l -6.8244,-13.18154 -7.5002,-11.31846 -7.5002,-11.31846 -8.1311,-9.70431 -8.1311,-9.704311 -11.2214,-10.541254 -11.2215,-10.541254 -10,-7.472432 -10,-7.472432 -10.6472,-6.050291 C 1192.2871,25.054165 1167.0941,16.380031 1139.883,12.51242 l -10.383,-1.47578 -17.5,0 -17.5,0 -10.383,1.47578 c -24.7247,3.5142 -45.6919,10.270711 -69.117,22.272378 l -12.5,6.404267 -8,5.583698 c -8.56477,5.977888 -17.92465,13.382777 -26,20.569394 l -5,4.449728 -8,-7.665182 C 924.08135,34.022992 886.34481,16.383658 841.71033,10.937558 L 831.92066,9.7430663 812.71033,10.279232 793.5,10.815398 l -8.81248,1.63698 c -41.06511,7.628126 -75.09613,24.733663 -101.75384,51.146089 l -8.56631,8.487499 -5.93369,-5.856466 C 655.16175,53.130284 642.34861,43.590379 625.46393,34.236768 L 614.5,28.16308 603,23.632321 l -11.5,-4.53076 -9.68752,-2.506102 c -5.32813,-1.378356 -13.65313,-3.242743 -18.5,-4.143081 L 554.5,10.815398 535.28967,10.279232 516.07934,9.7430663 506.28967,10.937558 c -44.59435,5.441203 -81.45316,22.625001 -113.40501,52.870084 l -8.38845,7.940374 -4.99811,-4.467175 C 345.27986,36.697464 306.82478,18.443608 264.21562,12.558564 L 252.93124,11 235.71562,11.01832 218.5,11.03664 208.11696,12.51242 C 180.87556,16.38434 155.95277,24.982265 131,39.116425 l -10.5,5.947582 -10,7.492144 -10,7.492144 L 89.282406,70.565207 78.064812,81.082118 69.929871,90.791059 61.79493,100.5 l -7.500235,11.31846 -7.500234,11.31846 -6.825729,13.18154 C 23.237847,168.62839 14.220298,200.46954 10.888878,239 l -1.1672365,13.5 0.5830305,16.5 0.583031,16.5 1.593313,12 c 0.876322,6.6 2.746939,17.175 4.156927,23.5 l 2.563613,11.5 4.307548,13 c 5.417843,16.35082 8.14846,22.98651 15.637176,38 l 5.98559,12 8.321876,12.51878 8.321877,12.51877 7.46024,8.98123 7.460241,8.98122 11.401948,11.00172 11.401948,11.00173 9.5,7.10194 c 34.83964,26.04519 74.39371,40.45475 118,42.98745 l 11.5,0.66794 13.77383,-1.20338 13.77383,-1.20337 11.50276,-2.3853 11.50275,-2.3853 13.22342,-4.44302 13.22341,-4.44301 9,-4.25814 c 18.43278,-8.72103 40.54253,-23.49934 54.02188,-36.10861 l 6.13071,-5.73498 6.42371,6.54203 c 8.96718,9.13237 18.74882,17.01005 30.96776,24.93999 l 10.45594,6.78578 10.5,4.93708 10.5,4.93708 13,4.26568 13,4.26568 11,2.13832 c 19.76654,3.84245 37.36594,4.80489 56,3.0624 z m 450.73486,-65.46243 -9.26513,-2.39438 -9.73487,-4.58271 -9.73486,-4.5827 -7.72058,-5.22375 -7.72059,-5.22374 -0.6547,-1.5 c -0.36008,-0.825 -0.9906,-3.20232 -1.40116,-5.28293 l -0.74647,-3.78293 0.94768,-4.44337 0.94768,-4.44337 4.45195,-4.95164 4.45195,-4.95164 4.72212,-1.82206 L 970.5,390.5 l 7.15784,0.1531 7.15784,0.1531 11.60135,-32.1531 C 1002.7978,340.9689 1009.7267,321.775 1011.8146,316 l 3.7962,-10.5 2.2214,0.24295 2.2214,0.24296 4.4071,-9.24296 4.4072,-9.24295 4.7549,-4.75468 4.755,-4.75468 5.0074,-2.49532 5.0075,-2.49532 8.3036,0 c 4.5671,0 8.3037,-0.17372 8.3037,-0.38605 0,-0.21232 -1.8,-11.9636 -4,-26.11395 -2.2,-14.15035 -4,-26.12663 -4,-26.61395 l 0,-0.88605 -5.5,0 -5.5,0 0,-6.5 0,-6.5 40.5,0 40.5,0 0,6.5 0,6.5 -6.4205,0 -6.4206,0 -0.5659,2.75 c -0.8902,4.32587 -7.593,48.36111 -7.593,49.88368 l 0,1.36632 6.25,-0.003 6.25,-0.003 19.214,-50.74676 c 10.5678,-27.91072 19.7272,-52.76923 20.3544,-55.24114 1.6304,-6.42588 4.1248,-10.89194 9.2959,-16.64341 l 4.5253,-5.03333 6.8052,-3.41444 6.8052,-3.41444 9.5,0 9.5,0 5.62,2.63517 5.62,2.63516 4.2146,3.80764 c 5.229,4.72405 9.117,10.41938 11.5226,16.87859 l 1.846,4.95656 0.039,5.54344 0.039,5.54344 -17.7973,47.5 c -9.7885,26.125 -18.9174,50.37291 -20.2865,53.88425 -1.369,3.51133 -3.5832,9.73563 -4.9203,13.83178 -1.3371,4.09614 -3.0599,8.64823 -3.8285,10.11575 -2.0374,3.89014 -7.2739,8.9095 -12.5008,11.98235 L 1169.5,320.5 l -35.6366,0.30713 -35.6367,0.30714 -1.2206,8.19286 c -0.6714,4.50608 -2.1543,13.36787 -3.2953,19.69287 l -2.0746,11.5 -0.3797,40.25 -0.3798,40.25 -5.4383,0 -5.4384,0 0.045,-34.75 0.045,-34.75 -3.7803,-25.25 -3.7803,-25.25 -8.0465,0 -8.0465,0 -11.8899,33.25 c -6.5395,18.2875 -16.3622,45.72579 -21.8283,60.97399 l -9.9383,27.72398 -2.526,2.52602 c -1.3893,1.3893 -2.8022,2.50388 -3.1397,2.47684 -0.3375,-0.027 -4.7829,-1.12664 -9.87874,-2.44355 z M 1009.4121,442.75 c 0.802,-1.2375 6.636,-16.65 12.9645,-34.25 6.3286,-17.6 15.8078,-43.91517 21.0649,-58.47814 5.2572,-14.56298 9.5585,-26.82548 9.5585,-27.25 l 0,-0.77186 -1.6549,0 c -0.9102,0 -8.5608,-2.9623 -17.0013,-6.58289 l -15.3464,-6.5829 -1.176,0.39199 -1.1759,0.39198 -2.2293,6.44091 c -1.2261,3.5425 -8.0975,22.64091 -15.26975,42.44091 l -13.04044,36 -1.80301,-0.39288 c -0.99165,-0.21609 -4.953,-0.44109 -8.803,-0.5 l -7,-0.10712 -4.77239,2.80528 -4.77239,2.80527 -2.43383,3.69473 -2.43382,3.69472 -0.65519,4.14742 -0.65519,4.14743 1.1501,3.48482 1.15009,3.48483 5.71131,3.95072 c 7.68358,5.31502 15.5705,9.68192 22.16917,12.27483 6.70187,2.63345 20.92034,6.88434 23.26904,6.95672 l 1.727,0.0532 1.4582,-2.25 z m 77.9034,-112.5609 1.3603,-9.1891 -3.3832,0 -3.3832,0 0.529,3.25 c 0.291,1.7875 0.9863,5.92015 1.5453,9.18366 0.559,3.26351 1.0163,6.15101 1.0163,6.41667 0,0.26565 0.2149,0.2681 0.4776,0.005 0.2626,-0.26266 1.0897,-4.61266 1.8379,-9.66666 z M 1098.6519,250 c 1.762,-12.375 3.4888,-24.4125 3.8372,-26.75 l 0.6334,-4.25 -17.5612,0 -17.5613,0 -8e-4,1.25 c -4e-4,0.6875 1.6534,12.85237 3.6753,27.03305 l 3.6761,25.78305 10.0488,-0.28305 10.0488,-0.28305 3.2037,-22.5 z M 136.78561,445.45227 c -0.30125,-0.30125 -6.78875,-2.9572 -14.41667,-5.90212 l -13.86894,-5.3544 0.11422,-1.34788 C 108.67704,432.10654 121.46527,399.1 137.03251,359.5 l 28.30407,-72 2.59005,-3.95548 2.59005,-3.95549 4.3194,-3.29451 4.3194,-3.29452 11.02585,0 11.02585,0 -3.10572,-3.53723 c -1.70815,-1.94547 -3.77977,-5.15043 -4.60359,-7.12212 L 192,258.75575 l 0,-5.01676 0,-5.01676 8.13803,-25.61112 8.13802,-25.61111 2.30658,-4.60744 c 1.26862,-2.5341 3.50394,-6.03042 4.96737,-7.76962 l 2.66079,-3.16217 4.14461,-2.42872 4.1446,-2.42873 4.25489,-0.68025 4.2549,-0.68025 4.7451,1.31805 4.74511,1.31806 5.56279,5.56053 5.56279,5.56054 1.68721,3.40364 1.68721,3.40364 0,2.38388 0,2.38389 9.22212,-0.28752 9.22212,-0.28753 5.68782,-14.73719 5.68782,-14.73719 0.66734,-3.94998 0.66735,-3.94998 3.43477,-5.81283 3.43477,-5.81283 4.08812,-3.72477 4.08813,-3.72477 5.64982,-2.77503 5.64982,-2.77502 10,0 10,0 6,2.93836 6,2.93837 5.03379,5.06143 5.0338,5.06143 2.76625,5.88304 2.76626,5.88304 0.58902,6.30765 0.58901,6.30765 -22.24963,59.80931 c -12.23729,32.89512 -22.88622,61.65407 -23.66428,63.90877 l -1.41465,4.09946 -3.58693,4.19052 -3.58694,4.19053 -5.13785,2.71001 L 300.5,320.5 l -53.67066,0.5 -53.67065,0.5 -2.47222,2.32367 -2.47221,2.32367 -2.07418,5.67633 c -2.40703,6.58724 -47.66331,113.03289 -48.348,113.71758 -0.25231,0.25231 -0.70522,0.21227 -1.00647,-0.089 z M 263.63803,237 c 2.39537,-6.325 4.35674,-11.8375 4.3586,-12.25 L 268,224 l -5.93949,0 -5.93948,0 -2.61014,8.75 c -1.43558,4.8125 -3.03781,10.05465 -3.56052,11.64922 C 249.42767,245.9938 249,247.70481 249,248.20148 l 0,0.90304 5.1414,-0.30226 5.1414,-0.30226 4.35523,-11.5 z m 163.26345,208.56814 c -0.29411,-0.29411 -7.02976,-3.00397 -14.96811,-6.02192 L 397.5,434.05904 l 0.16783,-0.77952 C 397.76014,432.85078 408.71194,401.45 422.00517,363.5 l 24.1695,-69 2.31199,-4 c 1.27159,-2.2 4.25424,-5.92056 6.6281,-8.26791 l 4.3161,-4.2679 4.98092,-2.4821 4.98091,-2.48209 11.80365,0 11.80366,0 0,-0.87916 c 0,-0.48353 -1.14187,-3.37332 -2.53748,-6.42175 l -2.53749,-5.54259 -1.5619,-7.32825 -1.5619,-7.32825 0.51978,-9 0.51978,-9 2.58537,-8.13052 2.58537,-8.13053 4.8137,-7.36947 4.8137,-7.36948 6.66279,-6.10122 6.66278,-6.10121 5.99245,-3.19394 c 3.29585,-1.75667 8.59134,-4.11686 11.76775,-5.24487 l 5.7753,-2.05093 11.5,-0.52841 11.5,-0.52842 6,1.54948 c 3.3,0.85222 6.72319,1.83171 7.60708,2.17665 l 1.60708,0.62716 1.09614,-2.80214 c 0.60288,-1.54118 1.61415,-4.82462 2.24727,-7.29653 1.6496,-6.44058 4.14382,-10.90106 9.30668,-16.64341 l 4.5254,-5.03333 6.80517,-3.41444 L 606.5,138.5 l 9.5,0 9.5,0 5.62001,2.63517 5.62001,2.63516 4.2146,3.80764 c 5.22897,4.72405 9.11703,10.41938 11.52261,16.87859 l 1.84596,4.95656 0.024,5.54344 0.024,5.54344 -9.78475,26 c -5.3816,14.3 -11.50618,30.5 -13.61016,36 -10.77832,28.17553 -19.36001,51.52472 -20.54815,55.90765 l -1.33037,4.90766 -3.20078,4.69049 -3.20077,4.6905 -4.59815,3.07898 -4.59815,3.07898 -4,1.06729 -4,1.0673 -54.70186,0.006 -54.70186,0.006 -3.54814,3.6534 -3.54814,3.6534 0,1.37507 c 0,0.75629 -8.82894,25.77476 -19.61987,55.5966 -10.79094,29.82184 -20.14279,55.70718 -20.78189,57.52297 l -1.16202,3.30145 -0.53474,-0.53475 z m 288.09823,-0.54311 C 714.17487,444.56636 707.875,442.06297 701,439.46194 c -6.875,-2.60102 -12.83723,-5.02874 -13.2494,-5.39493 l -0.7494,-0.66581 23.90596,-68.09514 c 13.14827,-37.45232 24.8259,-70.17485 25.95029,-72.71671 l 2.04435,-4.62158 5.2991,-5.23389 5.2991,-5.23388 4.60953,-2.25 4.60953,-2.25 14.6966,0 14.6966,0 -0.30613,-20.92177 -0.30613,-20.92177 -2.5,-2.71015 -2.5,-2.71015 -4,-1.84612 -4,-1.84612 -3,-0.0164 c -1.65,-0.009 -4.6998,0.45565 -6.77733,1.03259 l -3.77734,1.04897 -3.41999,3.0028 -3.41999,3.00279 -0.65716,4.38222 -0.65715,4.38222 -1.85523,1.67896 -1.85522,1.67895 -2.5743,-0.64611 -2.57431,-0.64611 -1.10758,-2.43087 -1.10758,-2.43088 1.25983,-4.49967 1.25983,-4.49968 3.27296,-3.82371 3.27296,-3.82372 5.3588,-2.95854 5.3588,-2.95853 9,0 9,0 5.3588,2.95853 5.3588,2.95854 3.23064,3.77428 3.23064,3.77428 1.16056,3.87359 1.16056,3.8736 0,19.13398 0,19.13398 22,0 c 12.1,0 22,-0.19162 22,-0.42583 0,-0.23421 -9.43322,-19.54102 -20.96271,-42.90403 l -20.9627,-42.47819 -0.92907,-5.84598 -0.92906,-5.84597 0.71332,-4.5 0.71332,-4.5 2.14141,-4.79339 c 2.76952,-6.19935 6.84013,-11.07971 12.74014,-15.27446 l 4.73323,-3.3652 5.62106,-1.64625 5.62106,-1.64626 6.74423,0.55411 6.74423,0.55412 5.99008,2.68819 5.99008,2.68819 4.46389,4.77226 4.46389,4.77225 4.92709,10.34822 c 8.44254,17.73165 14.8697,31.16626 32.45878,67.84822 l 17.02233,35.5 -0.0176,8.5 -0.0176,8.5 -2.38467,5.74809 -2.38468,5.74808 -3.83402,5.25192 -3.83402,5.25191 -4.16598,2.99941 c -2.29129,1.64967 -6.29347,3.98683 -8.89373,5.19368 l -4.72775,2.19428 -7.59461,1.05632 L 874.85528,321 836.92764,321 799,321 l 0,60 0,60 -5.5,0 -5.5,0 0,-60 0,-60 -10.81016,0 -10.81016,0 -3.14655,3.07634 -3.14655,3.07633 -2.1362,5.67367 c -1.1749,3.12051 -10.66496,29.26289 -21.08902,58.09418 -10.42406,28.83128 -19.26988,52.98705 -19.65739,53.67949 l -0.70456,1.25898 -1.4997,-0.83396 z m -289.77493,-193.19936 0.39144,-1.17432 5.44189,-1.85429 c 2.99304,-1.01985 10.35809,-2.74141 16.36678,-3.82567 L 458.34978,243 l 5.90845,0 5.90844,0 -0.41033,1.23098 -0.41033,1.23099 -6.923,2.1587 c -3.80766,1.18729 -11.16481,2.88335 -16.34923,3.76902 L 436.64757,253 l -5.90712,0 -5.90712,0 0.39145,-1.17433 z M 457,212.31939 c -9.27612,-1.51475 -19.26839,-3.831 -23.76187,-5.50809 l -5.26187,-1.96388 0.65638,-1.06204 0.65638,-1.06205 8.13222,0.5739 8.13222,0.5739 10.27847,2.09462 c 5.65316,1.15204 12.05363,2.8049 14.22327,3.67301 l 3.9448,1.5784 0,0.89142 0,0.89142 -7.25,-0.13618 c -3.9875,-0.0749 -8.375,-0.31989 -9.75,-0.54443 z m 24.66289,-32.69826 c -12.01167,-6.26091 -33.03269,-22.58467 -31.30648,-24.31087 0.8693,-0.86931 9.85363,3.64393 18.05852,9.07161 l 8.08507,5.34843 6.5,6.02932 6.5,6.02932 -0.61554,0.63774 -0.61555,0.63774 -6.60602,-3.44329 z m -239.89885,-4.61684 c -1.50477,-0.4531 -4.25719,-1.76399 -6.11647,-2.91309 l -3.38052,-2.08928 -2.86109,-4.25096 -2.86108,-4.25096 -0.0224,-7.06886 -0.0224,-7.06886 2.72761,-4.12586 2.72761,-4.12587 4.64464,-2.72194 4.64465,-2.72194 5.75549,0 5.75549,0 4.45075,2.60831 4.45075,2.60831 2.90903,4.30836 2.90902,4.30835 0.0111,7 0.0111,7 -2.62758,3.80406 -2.62759,3.80406 -3.32967,2.45655 -3.32966,2.45655 -3.54134,0.98381 c -4.11324,1.14269 -6.48038,1.14252 -10.2773,-7.4e-4 z m 539.6933,-34.29287 c -2.22347,-0.66628 -6.08611,-2.42402 -8.58365,-3.90608 l -4.54098,-2.69466 -3.54556,-3.92451 -3.54555,-3.92451 -2.1208,-5.66834 -2.1208,-5.66835 0,-6.42497 0,-6.42497 2.07617,-5.549061 2.07617,-5.549057 4.75543,-4.882221 4.75543,-4.88222 3.95012,-2.015204 3.95013,-2.015203 5.73981,-1.061062 5.73982,-1.061063 4.97511,0.94351 c 2.73631,0.518931 6.92503,1.831805 9.30828,2.917498 l 4.33317,1.973989 4.32585,4.302532 4.32586,4.302532 2.41627,5.247027 2.41627,5.247027 0.55588,5.385916 0.55587,5.38592 -1.28131,5.36706 -1.28132,5.36705 -2.30039,3.65707 c -1.26521,2.01139 -4.00864,5.33718 -6.0965,7.39064 l -3.79612,3.73356 -5.36084,2.48341 -5.36083,2.48342 -6.13917,0.33737 -6.13916,0.33736 -4.04266,-1.21141 z M 328,128.57229 c -6.53677,-1.81412 -10.06833,-3.87887 -14.96522,-8.74948 l -4.34613,-4.32281 -2.59353,-5.5 -2.59353,-5.5 0,-8 0,-8 2.59353,-5.5 2.59353,-5.5 4.2108,-4.18748 4.21081,-4.187481 4.26021,-2.062335 4.26022,-2.062335 5.48021,-1.013072 5.48021,-1.013072 5.18709,0.983712 5.1871,0.983713 4.26735,2.142297 4.26735,2.142298 4.70125,4.948617 4.70125,4.948617 2.11125,5.642819 2.11125,5.64282 0,6.090882 0,6.09088 -2.16501,5.78652 -2.16502,5.78652 -3.14748,3.58826 -3.14749,3.58825 -5,3.19641 -5,3.19641 -5.29922,1.13337 c -6.46036,1.38172 -9.36415,1.32549 -15.20078,-0.29433 z m 290.0473,0.22168 -4.45269,-0.99184 -5.04731,-3.23085 -5.0473,-3.23085 -3.14749,-3.58825 -3.14748,-3.58826 -2.10252,-5.61947 L 593,102.92497 593,96.5 l 0,-6.424975 2.04875,-5.475773 2.04875,-5.475773 4.70125,-4.948617 4.70125,-4.948617 4.3424,-2.180588 4.34241,-2.180588 5.46074,-0.888758 5.46074,-0.888759 5.59674,1.034613 5.59673,1.034612 3.60012,1.916105 c 1.98007,1.053859 5.5732,3.831084 7.98474,6.171612 l 4.38461,4.255506 2.31762,4.943593 2.31761,4.943593 0.64634,5.173114 0.64634,5.173113 -1.21036,5.830247 -1.21035,5.83024 -2.3421,3.71012 c -2.95767,4.68526 -9.03348,10.6282 -12.93433,12.65149 -4.06766,2.10981 -12.33622,4.24182 -16,4.12553 -1.65,-0.0524 -5.00371,-0.54155 -7.4527,-1.08707 z m 579,0 -4.4527,-0.99184 -5.0473,-3.23085 -5.0473,-3.23085 -3.1475,-3.58825 -3.1475,-3.58826 -2.1025,-5.61947 -2.1025,-5.61948 0,-6.451756 0,-6.451761 1.925,-5.066223 1.925,-5.066224 3.6374,-4.438887 3.6373,-4.438888 4.6336,-2.715453 4.6335,-2.715453 6.0541,-1.26831 6.0541,-1.26831 5.9456,1.057625 5.9457,1.057625 3.6056,1.839485 3.6057,1.839485 4.3544,4.331038 4.3543,4.331037 2.4163,5.247027 2.4163,5.247027 0.5559,5.385918 0.5558,5.385919 -1.2813,5.367059 -1.2813,5.36705 -2.3004,3.65707 c -2.9126,4.63034 -9.0012,10.58007 -12.8926,12.59844 -4.0677,2.10981 -12.3362,4.24182 -16,4.12553 -1.65,-0.0524 -5.0037,-0.54155 -7.4527,-1.08707 z"
       id="path3449"
       inkscape:connector-curvature="0" />
  </g>
</svg>
