<?xml version="1.0" encoding="UTF-8" standalone="no"?>
<!-- Created with Inkscape (http://www.inkscape.org/) -->

<svg
   xmlns:dc="http://purl.org/dc/elements/1.1/"
   xmlns:cc="http://creativecommons.org/ns#"
   xmlns:rdf="http://www.w3.org/1999/02/22-rdf-syntax-ns#"
   xmlns:svg="http://www.w3.org/2000/svg"
   xmlns="http://www.w3.org/2000/svg"
   xmlns:sodipodi="http://sodipodi.sourceforge.net/DTD/sodipodi-0.dtd"
   xmlns:inkscape="http://www.inkscape.org/namespaces/inkscape"
   id="svg3660"
   version="1.1"
   inkscape:version="0.48.5 r10040"
   width="400"
   height="349.63"
   sodipodi:docname="mobile_off.svg">
  <metadata
     id="metadata3666">
    <rdf:RDF>
      <cc:Work
         rdf:about="">
        <dc:format>image/svg+xml</dc:format>
        <dc:type
           rdf:resource="http://purl.org/dc/dcmitype/StillImage" />
      </cc:Work>
    </rdf:RDF>
  </metadata>
  <defs
     id="defs3664" />
  <sodipodi:namedview
     pagecolor="#ffffff"
     bordercolor="#666666"
     borderopacity="1"
     objecttolerance="10"
     gridtolerance="10"
     guidetolerance="10"
     inkscape:pageopacity="0"
     inkscape:pageshadow="2"
     inkscape:window-width="2560"
     inkscape:window-height="1373"
     id="namedview3662"
     showgrid="false"
     borderlayer="false"
     inkscape:zoom="0.49166667"
     inkscape:cx="-207.29092"
     inkscape:cy="283.90141"
     inkscape:window-x="-9"
     inkscape:window-y="-9"
     inkscape:window-maximized="1"
     inkscape:current-layer="svg3660" />
  <g
     id="g3693"
     transform="matrix(0.74763208,0,0,0.74763208,-5.9810566,-4.2088933)">
    <path
       style="fill:#fe0101"
       d="m 24,426.33142 c -4.413465,-1.5026 -7.784961,-3.49037 -10.196952,-6.01194 L 11.106096,417.5 9.5530479,413.78212 8,410.06424 8,239.24401 8,68.42378 10.25,63.975265 12.5,59.52675 16.643871,56.648508 20.787742,53.770266 25.143871,52.928684 29.5,52.087102 188.99869,52.043551 348.49739,52 205.3099,195.25 62.122413,338.5 l -0.652744,3.6447 -0.652743,3.64471 1.196244,2.35529 1.196244,2.3553 38.140426,38.25 38.14042,38.25 -56.99513,-0.079 C 51.147808,426.87763 24.825,426.6123 24,426.33142 z M 344.64797,284.75 486.7933,142.5 l 1.10335,-2.18426 1.10335,-2.18426 0,-3.53094 0,-3.53095 -2.94497,-3.35413 -2.94497,-3.35414 13.01638,-12.93066 L 509.14282,98.5 511.07141,94.789838 513,91.079676 l 0,-3.817332 0,-3.817332 -1.50124,-2.143323 -1.50124,-2.143324 -2.92305,-0.642008 -2.92304,-0.642009 -4.32572,1.282064 L 495.5,80.438475 481.20219,94.419211 466.90437,108.39995 438.70219,80.168545 410.5,51.937143 l 58,0.281429 58,0.281428 3.5,1.61 3.5,1.61 2.88189,2.89 2.8819,2.89 1.87936,4.359172 1.87937,4.359172 L 542.76126,240.85917 542.5,411.5 l -1.65715,3.02078 c -0.91143,1.66144 -2.93643,4.31334 -4.5,5.89313 l -2.84285,2.87233 -4,1.83492 -4,1.83492 -161.49868,0.022 L 202.50263,427 344.64797,284.75 z m -187.9812,108.80407 c -7.44806,-3.06243 -11.92715,-6.04884 -19.27065,-12.8486 l -5.89612,-5.45955 -3.93449,-5.71402 -3.9345,-5.71402 -1.78286,-5.15894 -1.78286,-5.15894 -0.0107,-5.5 -0.0107,-5.5 1.82709,-4 1.82709,-4 4.48509,-4.11771 4.48508,-4.11771 3.76478,-1.24249 3.76478,-1.24248 6.24867,0.39788 6.24866,0.39789 6.71659,3.30656 6.71659,3.30657 6.58543,6.15574 c 7.63393,7.13585 13.09092,14.20242 16.37591,21.20611 l 2.32156,4.94964 0.0444,7 0.0444,7 -1.72307,3.59439 -1.72308,3.59438 -3.96721,3.8503 -3.96721,3.8503 -4.30972,1.74944 -4.30971,1.74944 -4.5,0.0321 -4.5,0.0321 -5.83323,-2.39846 z m 19.3687,-13.08617 1.88924,-1.70974 1.09372,-3.31399 1.09371,-3.31399 -1.14048,-4.31509 -1.14049,-4.31509 -2.98278,-4.69226 -2.98278,-4.69226 -7.06547,-6.66521 -7.06548,-6.66521 -5.11733,-2.38276 -5.11733,-2.38276 -3.38197,-0.01 -3.38196,-0.01 -3.30443,2.04225 -3.30442,2.04224 -1.14801,3.47849 -1.148,3.47849 0.66794,3.95348 0.66793,3.95349 3.76568,5.77578 3.76567,5.77578 5.94538,5.62489 5.94538,5.62488 4.4554,2.28917 c 2.45048,1.25904 5.80541,2.58188 7.45541,2.93966 l 3,0.6505 3.32311,-0.72573 3.32312,-0.72573 1.88924,-1.70974 z m 7.62159,-48.31077 -27.66388,-27.67712 14.00275,-13.97595 14.00276,-13.97596 4.23392,4.23392 4.23391,4.23392 -9.91114,9.94848 -9.91115,9.94848 4.92788,5.1244 c 2.71034,2.81843 5.77242,5.58888 6.80462,6.15656 l 1.87673,1.03216 8.76285,-8.72226 8.76286,-8.72225 4.06085,4.31119 4.06084,4.31119 -3.81879,4.05806 c -2.10033,2.23193 -5.92399,6.28054 -8.49701,8.99691 l -4.67823,4.93886 12.04658,12.07558 C 213.57904,345.09487 219,350.87745 219,351.30347 c 0,0.42603 -1.72779,2.51973 -3.83953,4.65269 l -3.83953,3.87809 -27.66388,-27.67712 z m 34.34623,-34.65384 -27.48307,-27.4967 13.96439,-13.99117 13.96439,-13.99117 4.28754,4.2079 4.28754,4.2079 -9.51204,9.54786 C 212.28042,265.23924 208,269.96574 208,270.49125 c 0,0.52551 2.76874,3.59011 6.15276,6.81024 l 6.15276,5.85476 9.09724,-8.9321 9.09724,-8.9321 3.49634,3.84299 c 1.92298,2.11364 3.64663,4.29386 3.83032,4.84494 l 0.33399,1.00196 -8.08033,7.68555 -8.08032,7.68556 0,1.05903 0,1.05904 12.03545,12.06441 12.03544,12.06441 -3.99539,4.20003 C 247.87804,323.10999 245.94652,325 245.78324,325 c -0.16328,0 -12.66426,-12.37352 -27.77995,-27.49671 z M 285.2649,229.7351 248,192.4702 l 0,-3.97444 0,-3.97443 52.26066,-52.26067 L 352.52133,80 l 4.44857,0 4.44856,0 36.79077,36.75288 36.79077,36.75287 0,4.48646 0,4.48646 -52.26066,52.26067 L 330.47867,267 l -3.97443,0 -3.97444,0 -37.2649,-37.2649 z"
       id="path3674"
       inkscape:connector-curvature="0" />
    <path
       style="fill:#1fbf1f"
       d="m 24,426.33142 c -4.413465,-1.5026 -7.784961,-3.49037 -10.196952,-6.01194 L 11.106096,417.5 9.5530479,413.78212 8,410.06424 8,239.24401 8,68.42378 10.25,63.975265 12.5,59.52675 16.643871,56.648508 20.787742,53.770266 25.143871,52.928684 29.5,52.087102 188.99869,52.043551 348.49739,52 205.3099,195.25 62.122413,338.5 l -0.652744,3.6447 -0.652743,3.64471 1.196244,2.35529 1.196244,2.3553 38.140426,38.25 38.14042,38.25 -56.99513,-0.079 C 51.147808,426.87763 24.825,426.6123 24,426.33142 z M 344.64797,284.75 486.7933,142.5 l 1.10335,-2.18426 1.10335,-2.18426 0,-3.53094 0,-3.53095 -2.94497,-3.35413 -2.94497,-3.35414 13.01638,-12.93066 L 509.14282,98.5 511.07141,94.789838 513,91.079676 l 0,-3.817332 0,-3.817332 -1.50124,-2.143323 -1.50124,-2.143324 -2.92305,-0.642008 -2.92304,-0.642009 -4.32572,1.282064 L 495.5,80.438475 481.20219,94.419211 466.90437,108.39995 438.70219,80.168545 410.5,51.937143 l 58,0.281429 58,0.281428 3.5,1.61 3.5,1.61 2.88189,2.89 2.8819,2.89 1.87936,4.359172 1.87937,4.359172 L 542.76126,240.85917 542.5,411.5 l -1.65715,3.02078 c -0.91143,1.66144 -2.93643,4.31334 -4.5,5.89313 l -2.84285,2.87233 -4,1.83492 -4,1.83492 -161.49868,0.022 L 202.50263,427 344.64797,284.75 z M 285.2649,229.7351 248,192.4702 l 0,-3.97444 0,-3.97443 52.26066,-52.26067 L 352.52133,80 l 4.44857,0 4.44856,0 36.79077,36.75288 36.79077,36.75287 0,4.48646 0,4.48646 -52.26066,52.26067 L 330.47867,267 l -3.97443,0 -3.97444,0 -37.2649,-37.2649 z"
       id="path3672"
       inkscape:connector-curvature="0" />
  </g>
</svg>
